<svg width="71" height="71" viewBox="0 0 71 71" fill="none" xmlns="http://www.w3.org/2000/svg">
<rect x="2.15384" y="35" width="8" height="3" fill="white"/>
<rect x="3.15384" y="41" width="7" height="3" fill="white"/>
<rect x="5.15384" y="47" width="5" height="3" fill="white"/>
<rect x="61.1538" y="35" width="8" height="3" fill="white"/>
<rect x="61.1538" y="41" width="7" height="3" fill="white"/>
<rect x="61.1538" y="47" width="5" height="3" fill="white"/>
<path fill-rule="evenodd" clip-rule="evenodd" d="M67.1422 38C67.2009 37.2128 67.2308 36.4176 67.2308 35.6154C67.2308 35.4098 67.2288 35.2047 67.2249 35H70.2254C70.229 35.2047 70.2308 35.4098 70.2308 35.6154C70.2308 36.4169 70.2035 37.2121 70.1499 38H67.1422ZM66.7741 41C66.5995 42.0174 66.3763 43.0183 66.1069 44H69.2084C69.4532 43.016 69.6559 42.0153 69.8145 41H66.7741ZM63.7763 50C64.2738 49.0281 64.7224 48.027 65.119 47H68.3151C67.959 48.0227 67.5564 49.0235 67.1097 50H63.7763ZM62.0262 53C56.3714 61.5734 46.6541 67.2308 35.6154 67.2308C24.5767 67.2308 14.8594 61.5734 9.20459 53H5.67555C11.6716 63.3041 22.8346 70.2308 35.6154 70.2308C48.3962 70.2308 59.5592 63.3041 65.5552 53H62.0262ZM35.6154 4C51.8535 4 65.2324 16.2419 67.0263 32H70.0442C68.2365 14.5815 53.512 1 35.6154 1C17.7188 1 2.99427 14.5815 1.18654 32H4.20446C5.9984 16.2419 19.3773 4 35.6154 4ZM7.45443 50C6.95697 49.0281 6.50835 48.027 6.1118 47H2.91571C3.27173 48.0227 3.67437 49.0235 4.12108 50H7.45443ZM5.12384 44H2.0224C1.77759 43.016 1.57488 42.0153 1.41631 41H4.4567C4.63129 42.0174 4.85449 43.0183 5.12384 44ZM4.08858 38C4.02988 37.2128 4 36.4176 4 35.6154C4 35.4098 4.00196 35.2047 4.00587 35H1.00536C1.00179 35.2047 1 35.4098 1 35.6154C1 36.4169 1.02724 37.2121 1.08085 38H4.08858Z" fill="white"/>
<path d="M18.5538 53.0004V19.0004L28.0538 37.0004L36.0538 24.5004V53.0004V21.5004L52.0538 53.0004L52.5538 19.0004" stroke="white"/>
<line x1="18.5275" y1="54.0009" x2="18.5275" y2="18" stroke="white" stroke-width="3"/>
<line x1="52.6538" y1="54.0004" x2="52.6538" y2="18.0004" stroke="white" stroke-width="3"/>
<line x1="36.6538" y1="54.0004" x2="36.6538" y2="23.9985" stroke="white" stroke-width="3"/>
<line x1="19.0362" y1="18.5299" x2="28.448" y2="36.1769" stroke="white" stroke-width="2"/>
<line x1="38.1235" y1="24.481" x2="53.1235" y2="52.4805" stroke="white" stroke-width="2.2"/>
<line x1="28.3233" y1="35.1435" x2="36.1695" y2="23.443" stroke="white" stroke-width="2"/>
<line x1="35.6538" y1="18.0004" x2="35.6538" y2="25.0004" stroke="white"/>
<path d="M36.1538 18.0004L40.1538 26.0004H36.1538V18.0004Z" fill="white"/>
<path d="M37.6538 26.0004L54.1538 54H51.1538L37.6538 26.0004Z" fill="white"/>
</svg>
